<?xml version="1.0" encoding="UTF-8"?>
<svg xmlns="http://www.w3.org/2000/svg" xmlns:xlink="http://www.w3.org/1999/xlink" width="40pt" height="40pt" viewBox="0 0 40 40" version="1.1">
<g id="surface48374833">
<path style=" stroke:none;fill-rule:nonzero;fill: #fff;fill-opacity:1;" d="M 3.601562 35.75 L 6.433594 32.921875 L 6.269531 32.742188 C 3.03125 29.265625 1.25 24.742188 1.25 20 C 1.25 9.660156 9.660156 1.25 20 1.25 C 20.847656 1.25 21.75 1.324219 22.75 1.472656 L 22.75 6.023438 C 21.828125 5.84375 20.90625 5.75 20 5.75 C 12.140625 5.75 5.75 12.140625 5.75 20 C 5.75 23.515625 7.0625 26.902344 9.449219 29.53125 L 9.625 29.726562 L 12.75 26.601562 L 12.75 35.75 Z M 3.601562 35.75 "/>
<path style=" stroke:none;fill-rule:nonzero;fill: #fff;fill-opacity:1;" d="M 20 38.75 C 19.152344 38.75 18.25 38.675781 17.25 38.527344 L 17.25 33.976562 C 18.171875 34.15625 19.09375 34.25 20 34.25 C 27.859375 34.25 34.25 27.859375 34.25 20 C 34.25 16.476562 32.9375 13.089844 30.554688 10.460938 L 30.378906 10.269531 L 27.25 13.398438 L 27.25 4.25 L 36.398438 4.25 L 33.558594 7.085938 L 33.722656 7.265625 C 36.964844 10.746094 38.75 15.269531 38.75 20 C 38.75 30.339844 30.339844 38.75 20 38.75 Z M 20 38.75 "/>
</g>
</svg>
