<?xml version="1.0" encoding="utf-8"?>
<!-- Svg Vector Icons : http://www.onlinewebfonts.com/icon -->
<!DOCTYPE svg PUBLIC "-//W3C//DTD SVG 1.1//EN" "http://www.w3.org/Graphics/SVG/1.1/DTD/svg11.dtd">
<svg version="1.1" xmlns="http://www.w3.org/2000/svg" xmlns:xlink="http://www.w3.org/1999/xlink" x="0px" y="0px" viewBox="0 0 1000 1000" enable-background="new 0 0 1000 1000" style="fill: #fff;" xml:space="preserve">
<metadata> Svg Vector Icons : http://www.onlinewebfonts.com/icon </metadata>
<g><path d="M800.3,653.6c-46.5,13.2-81.5,47.1-97.9,88.9l-351.9-94c-0.3-14.1-2.2-28.5-6.3-42.7c-1.2-4.1-2.6-8.1-4.1-12.1L590,326.9c35,23.3,79.6,31.8,123.3,19.5c79.2-22.4,125.2-104.8,102.7-184c-22.4-79.2-104.8-125.2-184-102.7c-79.2,22.4-125.2,104.8-102.7,184c4.5,15.7,11.3,30.1,20,42.9L294.4,526.1c-42.1-37.9-102-54.2-160.5-37.6C43.4,514.1-9.1,608.3,16.5,698.8c25.6,90.5,119.8,143,210.3,117.4c48.5-13.7,85.9-47.2,106.5-89.2l358.8,73.2c0.3,12.4,1.9,25,5.5,37.5c22.4,79.2,104.8,125.2,184,102.7c79.2-22.4,125.2-104.8,102.7-184C961.9,677.1,879.5,631.2,800.3,653.6L800.3,653.6z"/></g>
</svg>